<svg width="116" height="116" viewBox="0 0 116 116" fill="none" xmlns="http://www.w3.org/2000/svg">
<path d="M115.399 57.6C115.399 89.4116 89.6108 115.2 57.7992 115.2C25.9876 115.2 0.199219 89.4116 0.199219 57.6C0.199219 25.7884 25.9876 0 57.7992 0C89.6108 0 115.399 25.7884 115.399 57.6Z" fill="#BAE6FD"/>
<path fill-rule="evenodd" clip-rule="evenodd" d="M57.7992 111.6C87.6226 111.6 111.799 87.4234 111.799 57.6C111.799 27.7766 87.6226 3.6 57.7992 3.6C27.9758 3.6 3.79922 27.7766 3.79922 57.6C3.79922 87.4234 27.9758 111.6 57.7992 111.6ZM57.7992 115.2C89.6108 115.2 115.399 89.4116 115.399 57.6C115.399 25.7884 89.6108 0 57.7992 0C25.9876 0 0.199219 25.7884 0.199219 57.6C0.199219 89.4116 25.9876 115.2 57.7992 115.2Z" fill="white"/>
</svg>
