<svg width="116" height="116" viewBox="0 0 116 116" fill="none" xmlns="http://www.w3.org/2000/svg">
<path fill-rule="evenodd" clip-rule="evenodd" d="M58.1996 111.6C88.023 111.6 112.2 87.4234 112.2 57.6C112.2 27.7766 88.023 3.6 58.1996 3.6C28.3762 3.6 4.19961 27.7766 4.19961 57.6C4.19961 87.4234 28.3762 111.6 58.1996 111.6ZM58.1996 115.2C90.0112 115.2 115.8 89.4116 115.8 57.6C115.8 25.7884 90.0112 0 58.1996 0C26.388 0 0.599609 25.7884 0.599609 57.6C0.599609 89.4116 26.388 115.2 58.1996 115.2Z" fill="#BAE6FD"/>
<path d="M115.8 57.6C115.8 89.4116 90.0112 115.2 58.1996 115.2C26.388 115.2 0.599609 89.4116 0.599609 57.6C0.599609 25.7884 26.388 0 58.1996 0C90.0112 0 115.8 25.7884 115.8 57.6Z" fill="white"/>
<path d="M115.8 57.6C115.8 89.4116 90.0112 115.2 58.1996 115.2C26.388 115.2 0.599609 89.4116 0.599609 57.6C0.599609 25.7884 26.388 0 58.1996 0C90.0112 0 115.8 25.7884 115.8 57.6Z" fill="white"/>
<path fill-rule="evenodd" clip-rule="evenodd" d="M58.1996 111.6C88.023 111.6 112.2 87.4234 112.2 57.6C112.2 27.7766 88.023 3.6 58.1996 3.6C28.3762 3.6 4.19961 27.7766 4.19961 57.6C4.19961 87.4234 28.3762 111.6 58.1996 111.6ZM58.1996 115.2C90.0112 115.2 115.8 89.4116 115.8 57.6C115.8 25.7884 90.0112 0 58.1996 0C26.388 0 0.599609 25.7884 0.599609 57.6C0.599609 89.4116 26.388 115.2 58.1996 115.2Z" fill="white"/>
<path fill-rule="evenodd" clip-rule="evenodd" d="M57.6 111.6C87.4234 111.6 111.6 87.4236 111.6 57.6002C111.6 27.7768 87.4234 3.60024 57.6 3.60024C27.7766 3.60024 3.6 27.7768 3.6 57.6002C3.6 87.4236 27.7766 111.6 57.6 111.6ZM57.6 115.2C89.4116 115.2 115.2 89.4118 115.2 57.6002C115.2 25.7886 89.4116 0.000244141 57.6 0.000244141C25.7884 0.000244141 0 25.7886 0 57.6002C0 89.4118 25.7884 115.2 57.6 115.2Z" fill="#BAE6FD"/>
</svg>
