<svg width="116" height="116" viewBox="0 0 116 116" fill="none" xmlns="http://www.w3.org/2000/svg">
<path d="M115.2 57.6C115.2 89.4116 89.4116 115.2 57.6 115.2C25.7884 115.2 0 89.4116 0 57.6C0 25.7884 25.7884 0 57.6 0C89.4116 0 115.2 25.7884 115.2 57.6Z" fill="#FBBF24"/>
<path fill-rule="evenodd" clip-rule="evenodd" d="M57.6 111.6C87.4234 111.6 111.6 87.4234 111.6 57.6C111.6 27.7766 87.4234 3.6 57.6 3.6C27.7766 3.6 3.6 27.7766 3.6 57.6C3.6 87.4234 27.7766 111.6 57.6 111.6ZM57.6 115.2C89.4116 115.2 115.2 89.4116 115.2 57.6C115.2 25.7884 89.4116 0 57.6 0C25.7884 0 0 25.7884 0 57.6C0 89.4116 25.7884 115.2 57.6 115.2Z" fill="white"/>
</svg>
